# Blender v2.92.0 OBJ File: ''
# www.blender.org
mtllib Sphere.mtl
o Sphere
v -0.321139 0.152368 -0.975815
v 0.535892 0.509071 -0.745914
v 0.345371 -0.397205 -0.949516
v 0.309862 0.943318 -0.282181
v 1.048309 -0.158814 -0.226285
v 0.896644 0.536957 0.154152
v 0.381094 -0.957124 -0.247577
v 0.758648 -0.455126 0.554121
v 0.376694 0.247419 0.980801
v -0.126525 -0.505273 0.951111
v 0.008515 0.998068 0.370999
v -0.597401 0.583613 0.679407
v -0.967598 -0.188229 0.397977
v -0.597196 -0.785468 0.362565
v 0.073739 -1.024805 0.154873
v -0.768860 0.643993 -0.294522
v -0.976248 -0.030688 -0.390646
v -0.204401 0.885148 -0.530755
v -0.532548 -0.722228 -0.589639
vt 0.608795 0.860754
vt 0.652882 0.664370
vt 0.827247 0.811383
vt 0.804071 0.544218
vt 0.734375 1.000000
vt 0.690259 0.381378
vt 0.530784 0.450254
vt 0.473272 0.663288
vt 0.399088 0.361369
vt 0.594211 0.175775
vt 0.558597 0.074202
vt 0.308653 0.568614
vt 0.229729 0.340371
vt 0.132544 0.672405
vt 0.058578 0.450163
vt 0.000000 0.725079
vt 0.000000 0.479867
vt 1.000000 0.334687
vt 0.943585 0.488329
vt 0.874999 0.278386
vt 0.996354 0.174786
vt 0.250492 0.863084
vt 0.235909 0.074785
vt 0.085170 0.234428
vt 0.945930 0.046024
vt 0.985236 0.918502
vt 0.941907 0.713127
vn 0.2095 0.7626 -0.6120
vn 0.0142 0.5174 -0.8556
vn -0.0589 0.9921 -0.1103
vn 0.7160 0.0063 -0.6980
vn 0.6823 0.6693 -0.2942
vn 0.7661 -0.6414 0.0408
vn 0.9360 0.0117 0.3518
vn 0.5221 -0.8115 0.2623
vn 0.8236 0.1098 0.5565
vn 0.4041 -0.3042 0.8626
vn -0.2517 0.1304 0.9590
vn -0.9563 0.2844 0.0673
vn -0.8500 -0.5183 -0.0942
vn -0.8486 -0.5209 -0.0922
vn -0.2456 -0.3413 -0.9073
vn 0.1851 0.1782 -0.9664
vn 0.6802 -0.5558 -0.4779
vn 0.8545 0.3800 -0.3543
vn 0.4843 0.8617 0.1512
vn 0.4873 0.6820 0.5454
vn 0.3002 -0.7625 0.5731
vn -0.0273 0.6222 0.7824
vn -0.1418 -0.8450 0.5157
vn -0.5582 -0.0345 0.8290
vn -0.6039 -0.4149 0.6805
vn -0.9108 0.3700 0.1833
vn -0.5085 0.8492 0.1422
vn -0.3583 -0.9296 -0.0861
vn -0.4000 0.9163 -0.0203
vn -0.5078 0.5049 -0.6980
vn -0.6805 0.3042 -0.6667
vn -0.6259 -0.1834 -0.7581
vn 0.0331 -0.7805 -0.6243
vn -0.1437 -0.9521 -0.2699
usemtl None
s off
f 4/1/1 2/2/1 18/3/1
f 18/3/2 2/2/2 1/4/2
f 18/3/3 11/5/3 4/1/3
f 3/6/4 2/2/4 5/7/4
f 4/1/5 6/8/5 2/2/5
f 5/7/6 8/9/6 7/10/6
f 6/8/7 8/9/7 5/7/7
f 7/10/8 8/9/8 15/11/8
f 6/8/9 9/12/9 8/9/9
f 9/12/10 10/13/10 8/9/10
f 12/14/11 10/13/11 9/12/11
f 13/15/12 16/16/12 17/17/12
f 13/18/13 17/19/13 19/20/13
f 13/18/14 19/20/14 14/21/14
f 1/4/15 3/6/15 19/20/15
f 1/4/16 2/2/16 3/6/16
f 7/10/17 3/6/17 5/7/17
f 2/2/18 6/8/18 5/7/18
f 4/1/19 11/22/19 6/8/19
f 6/8/20 11/22/20 9/12/20
f 15/11/21 8/9/21 10/13/21
f 11/22/22 12/14/22 9/12/22
f 15/23/23 10/13/23 14/24/23
f 10/13/24 12/14/24 13/15/24
f 10/13/25 13/15/25 14/24/25
f 13/15/26 12/14/26 16/16/26
f 12/14/27 11/22/27 16/16/27
f 14/21/28 19/20/28 15/25/28
f 11/26/29 18/3/29 16/27/29
f 16/27/30 18/3/30 1/4/30
f 17/19/31 16/27/31 1/4/31
f 17/19/32 1/4/32 19/20/32
f 19/20/33 3/6/33 7/10/33
f 15/25/34 19/20/34 7/10/34
